# Blender 3.5.0
# www.blender.org
mtllib star_lowpoly.mtl
o planet_lower
v 0.000000 0.382683 -0.923880
v 0.000000 0.000000 -1.000000
v 0.000000 -0.382683 -0.923880
v 0.000000 -0.923880 -0.382683
v 0.146447 0.923880 -0.353553
v 0.270598 0.707107 -0.653281
v 0.353553 0.382683 -0.853553
v 0.382683 0.000000 -0.923880
v 0.353553 -0.382683 -0.853553
v 0.270598 -0.707107 -0.653281
v 0.146447 -0.923880 -0.353553
v 0.270598 0.923880 -0.270598
v 0.500000 0.707107 -0.500000
v 0.653282 0.382683 -0.653281
v 0.707107 0.000000 -0.707107
v 0.653282 -0.382683 -0.653281
v 0.500000 -0.707107 -0.500000
v 0.270598 -0.923880 -0.270598
v 0.353553 0.923880 -0.146447
v 0.653281 0.707107 -0.270598
v 0.853553 0.382683 -0.353553
v 0.923880 0.000000 -0.382683
v 0.853553 -0.382683 -0.353553
v 0.653281 -0.707107 -0.270598
v 0.353553 -0.923880 -0.146447
v 0.382683 0.923880 0.000000
v 0.707107 0.707107 0.000000
v 0.923880 0.382683 0.000000
v 1.000000 0.000000 0.000000
v 0.923880 -0.382683 0.000000
v 0.707107 -0.707107 0.000000
v 0.382683 -0.923880 0.000000
v 0.353553 0.923880 0.146447
v 0.653281 0.707107 0.270598
v 0.853553 0.382683 0.353554
v 0.923879 0.000000 0.382684
v 0.853553 -0.382683 0.353554
v 0.653281 -0.707107 0.270598
v 0.353553 -0.923880 0.146447
v 0.270598 0.923880 0.270598
v 0.500000 0.707107 0.500000
v 0.653281 0.382683 0.653282
v 0.707107 0.000000 0.707107
v 0.653281 -0.382683 0.653282
v 0.500000 -0.707107 0.500000
v 0.270598 -0.923880 0.270598
v 0.146447 0.923880 0.353553
v 0.270598 0.707107 0.653281
v 0.353553 0.382683 0.853553
v 0.382683 0.000000 0.923880
v 0.353553 -0.382683 0.853553
v 0.270598 -0.707107 0.653281
v 0.146447 -0.923880 0.353553
v -0.000000 0.923880 0.382683
v -0.000000 0.707107 0.707107
v -0.000000 0.382683 0.923879
v -0.000000 0.000000 1.000000
v -0.000000 -0.382683 0.923879
v -0.000000 -0.707107 0.707107
v -0.000000 -0.923880 0.382683
v 0.000000 -1.000000 0.000000
v 0.000000 1.000000 0.000000
v -0.146447 0.923880 0.353553
v -0.270598 0.707107 0.653281
v -0.353554 0.382683 0.853553
v -0.382684 0.000000 0.923879
v -0.353554 -0.382683 0.853553
v -0.270598 -0.707107 0.653281
v -0.146447 -0.923880 0.353553
v -0.270598 0.923880 0.270598
v -0.500000 0.707107 0.500000
v -0.653282 0.382683 0.653281
v -0.707107 0.000000 0.707106
v -0.653282 -0.382683 0.653281
v -0.500000 -0.707107 0.500000
v -0.270598 -0.923880 0.270598
v -0.353553 0.923880 0.146446
v -0.653281 0.707107 0.270598
v -0.853553 0.382683 0.353553
v -0.923880 0.000000 0.382683
v -0.853553 -0.382683 0.353553
v -0.653281 -0.707107 0.270598
v -0.353553 -0.923880 0.146446
v -0.382683 0.923880 -0.000000
v -0.707107 0.707107 -0.000000
v -0.923879 0.382683 -0.000000
v -1.000000 0.000000 -0.000001
v -0.923879 -0.382683 -0.000000
v -0.707107 -0.707107 -0.000000
v -0.382683 -0.923880 -0.000000
v -0.353553 0.923880 -0.146447
v -0.653281 0.707107 -0.270598
v -0.853553 0.382683 -0.353554
v -0.923879 0.000000 -0.382684
v -0.853553 -0.382683 -0.353554
v -0.653281 -0.707107 -0.270598
v -0.353553 -0.923880 -0.146447
v -0.270598 0.923880 -0.270598
v -0.500000 0.707107 -0.500000
v -0.653281 0.382683 -0.653282
v -0.707106 0.000000 -0.707107
v -0.653281 -0.382683 -0.653282
v -0.500000 -0.707107 -0.500000
v -0.270598 -0.923880 -0.270598
v -0.146446 0.923880 -0.353554
v -0.270598 0.707107 -0.653281
v -0.353553 0.382683 -0.853553
v -0.382683 0.000000 -0.923880
v -0.353553 -0.382683 -0.853553
v -0.270598 -0.707107 -0.653281
v -0.146446 -0.923880 -0.353554
v 0.000000 0.923880 -0.382683
v 0.000000 0.707107 -0.707107
v 0.000000 -0.707107 -0.707107
vn -0.0000 -0.9152 -0.4031
vn -0.0000 -0.6952 -0.7189
vn 0.2751 -0.6952 -0.6641
vn 0.1543 -0.9152 -0.3724
vn -0.0000 -0.3744 -0.9273
vn -0.0000 -0.0000 -1.0000
vn 0.3827 -0.0000 -0.9239
vn 0.3549 -0.3744 -0.8567
vn -0.0000 0.3744 -0.9273
vn -0.0000 0.6952 -0.7189
vn 0.2751 0.6952 -0.6641
vn 0.3549 0.3744 -0.8567
vn -0.0000 0.9152 -0.4031
vn -0.0000 1.0000 -0.0000
vn 0.1543 0.9152 -0.3724
vn -0.0000 -1.0000 -0.0000
vn 0.2850 -0.9152 -0.2850
vn 0.6557 -0.3744 -0.6557
vn 0.5083 -0.6952 -0.5083
vn 0.6557 0.3744 -0.6557
vn 0.7071 -0.0000 -0.7071
vn 0.2850 0.9152 -0.2850
vn 0.5083 0.6952 -0.5083
vn 0.8567 0.3744 -0.3549
vn 0.9239 -0.0000 -0.3827
vn 0.3724 0.9152 -0.1543
vn 0.6641 0.6952 -0.2751
vn 0.6641 -0.6952 -0.2751
vn 0.3724 -0.9152 -0.1543
vn 0.8567 -0.3744 -0.3549
vn 0.7189 -0.6952 -0.0000
vn 0.4031 -0.9152 -0.0000
vn 1.0000 -0.0000 -0.0000
vn 0.9273 -0.3744 -0.0000
vn 0.7189 0.6952 -0.0000
vn 0.9273 0.3744 -0.0000
vn 0.4031 0.9152 -0.0000
vn 0.6641 0.6952 0.2751
vn 0.8567 0.3744 0.3549
vn 0.3724 0.9152 0.1543
vn 0.3724 -0.9152 0.1543
vn 0.8567 -0.3744 0.3549
vn 0.6641 -0.6952 0.2751
vn 0.9239 -0.0000 0.3827
vn 0.2850 -0.9152 0.2850
vn 0.6557 -0.3744 0.6557
vn 0.5083 -0.6952 0.5083
vn 0.6557 0.3744 0.6557
vn 0.7071 -0.0000 0.7071
vn 0.2850 0.9152 0.2850
vn 0.5083 0.6952 0.5083
vn 0.1543 0.9152 0.3724
vn 0.2751 0.6952 0.6641
vn 0.2751 -0.6952 0.6641
vn 0.1543 -0.9152 0.3724
vn 0.3827 -0.0000 0.9239
vn 0.3549 -0.3744 0.8567
vn 0.3549 0.3744 0.8567
vn -0.0000 -0.6952 0.7189
vn -0.0000 -0.9152 0.4031
vn -0.0000 -0.0000 1.0000
vn -0.0000 -0.3744 0.9273
vn -0.0000 0.6952 0.7189
vn -0.0000 0.3744 0.9273
vn -0.0000 0.9152 0.4031
vn -0.1543 0.9152 0.3724
vn -0.1543 -0.9152 0.3724
vn -0.3549 -0.3744 0.8567
vn -0.2751 -0.6952 0.6641
vn -0.3549 0.3744 0.8567
vn -0.3827 -0.0000 0.9239
vn -0.2751 0.6952 0.6641
vn -0.6557 -0.3744 0.6557
vn -0.5083 -0.6952 0.5083
vn -0.6557 0.3744 0.6557
vn -0.7071 -0.0000 0.7071
vn -0.2850 0.9152 0.2850
vn -0.5083 0.6952 0.5083
vn -0.2850 -0.9152 0.2850
vn -0.6641 -0.6952 0.2751
vn -0.3724 -0.9152 0.1543
vn -0.9239 -0.0000 0.3827
vn -0.8567 -0.3744 0.3549
vn -0.6641 0.6952 0.2751
vn -0.8567 0.3744 0.3549
vn -0.3724 0.9152 0.1543
vn -1.0000 -0.0000 -0.0000
vn -0.9273 -0.3744 -0.0000
vn -0.7189 0.6952 -0.0000
vn -0.9273 0.3744 -0.0000
vn -0.4031 0.9152 -0.0000
vn -0.4031 -0.9152 -0.0000
vn -0.7189 -0.6952 -0.0000
vn -0.3724 -0.9152 -0.1543
vn -0.8567 -0.3744 -0.3549
vn -0.6641 -0.6952 -0.2751
vn -0.8567 0.3744 -0.3549
vn -0.9239 -0.0000 -0.3827
vn -0.3724 0.9152 -0.1543
vn -0.6641 0.6952 -0.2751
vn -0.6557 0.3744 -0.6557
vn -0.7071 -0.0000 -0.7071
vn -0.2850 0.9152 -0.2850
vn -0.5083 0.6952 -0.5083
vn -0.5083 -0.6952 -0.5083
vn -0.2850 -0.9152 -0.2850
vn -0.6557 -0.3744 -0.6557
vn -0.2751 -0.6952 -0.6641
vn -0.1543 -0.9152 -0.3724
vn -0.3827 -0.0000 -0.9239
vn -0.3549 -0.3744 -0.8567
vn -0.2751 0.6952 -0.6641
vn -0.3549 0.3744 -0.8567
vn -0.1543 0.9152 -0.3724
vt 0.750000 0.625000
vt 0.750000 0.500000
vt 0.750000 0.375000
vt 0.750000 0.125000
vt 0.687500 0.875000
vt 0.687500 0.750000
vt 0.687500 0.625000
vt 0.687500 0.500000
vt 0.687500 0.375000
vt 0.687500 0.250000
vt 0.687500 0.125000
vt 0.625000 0.875000
vt 0.625000 0.750000
vt 0.625000 0.625000
vt 0.625000 0.500000
vt 0.625000 0.375000
vt 0.625000 0.250000
vt 0.625000 0.125000
vt 0.562500 0.875000
vt 0.562500 0.750000
vt 0.562500 0.625000
vt 0.562500 0.500000
vt 0.562500 0.375000
vt 0.562500 0.250000
vt 0.562500 0.125000
vt 0.500000 0.875000
vt 0.500000 0.750000
vt 0.500000 0.625000
vt 0.500000 0.500000
vt 0.500000 0.375000
vt 0.500000 0.250000
vt 0.500000 0.125000
vt 0.437500 0.875000
vt 0.437500 0.750000
vt 0.437500 0.625000
vt 0.437500 0.500000
vt 0.437500 0.375000
vt 0.437500 0.250000
vt 0.437500 0.125000
vt 0.375000 0.875000
vt 0.375000 0.750000
vt 0.375000 0.625000
vt 0.375000 0.500000
vt 0.375000 0.375000
vt 0.375000 0.250000
vt 0.375000 0.125000
vt 0.312500 0.875000
vt 0.312500 0.750000
vt 0.312500 0.625000
vt 0.312500 0.500000
vt 0.312500 0.375000
vt 0.312500 0.250000
vt 0.312500 0.125000
vt 0.250000 0.875000
vt 0.250000 0.750000
vt 0.250000 0.625000
vt 0.250000 0.500000
vt 0.250000 0.375000
vt 0.250000 0.250000
vt 0.250000 0.125000
vt 0.718750 0.000000
vt 0.656250 0.000000
vt 0.593750 0.000000
vt 0.531250 0.000000
vt 0.468750 0.000000
vt 0.406250 0.000000
vt 0.343750 0.000000
vt 0.281250 0.000000
vt 0.218750 0.000000
vt 0.156250 0.000000
vt 0.093750 0.000000
vt 0.031250 0.000000
vt 0.968750 0.000000
vt 0.906250 0.000000
vt 0.843750 0.000000
vt 0.781250 0.000000
vt 0.718750 1.000000
vt 0.656250 1.000000
vt 0.593750 1.000000
vt 0.531250 1.000000
vt 0.468750 1.000000
vt 0.406250 1.000000
vt 0.343750 1.000000
vt 0.281250 1.000000
vt 0.218750 1.000000
vt 0.156250 1.000000
vt 0.093750 1.000000
vt 0.031250 1.000000
vt 0.968750 1.000000
vt 0.906250 1.000000
vt 0.843750 1.000000
vt 0.781250 1.000000
vt 0.187500 0.875000
vt 0.187500 0.750000
vt 0.187500 0.625000
vt 0.187500 0.500000
vt 0.187500 0.375000
vt 0.187500 0.250000
vt 0.187500 0.125000
vt 0.125000 0.875000
vt 0.125000 0.750000
vt 0.125000 0.625000
vt 0.125000 0.500000
vt 0.125000 0.375000
vt 0.125000 0.250000
vt 0.125000 0.125000
vt 0.062500 0.875000
vt 0.062500 0.750000
vt 0.062500 0.625000
vt 0.062500 0.500000
vt 0.062500 0.375000
vt 0.062500 0.250000
vt 0.062500 0.125000
vt 0.000000 0.875000
vt 1.000000 0.875000
vt 0.000000 0.750000
vt 1.000000 0.750000
vt 0.000000 0.625000
vt 1.000000 0.625000
vt 0.000000 0.500000
vt 1.000000 0.500000
vt 0.000000 0.375000
vt 1.000000 0.375000
vt 0.000000 0.250000
vt 1.000000 0.250000
vt 0.000000 0.125000
vt 1.000000 0.125000
vt 0.937500 0.875000
vt 0.937500 0.750000
vt 0.937500 0.625000
vt 0.937500 0.500000
vt 0.937500 0.375000
vt 0.937500 0.250000
vt 0.937500 0.125000
vt 0.875000 0.875000
vt 0.875000 0.750000
vt 0.875000 0.625000
vt 0.875000 0.500000
vt 0.875000 0.375000
vt 0.875000 0.250000
vt 0.875000 0.125000
vt 0.812500 0.875000
vt 0.812500 0.750000
vt 0.812500 0.625000
vt 0.812500 0.500000
vt 0.812500 0.375000
vt 0.812500 0.250000
vt 0.812500 0.125000
vt 0.750000 0.875000
vt 0.750000 0.750000
vt 0.750000 0.250000
s 1
f 4/4/1 114/151/2 10/10/3 11/11/4
f 3/3/5 2/2/6 8/8/7 9/9/8
f 1/1/9 113/150/10 6/6/11 7/7/12
f 112/149/13 62/77/14 5/5/15
f 61/61/16 4/4/1 11/11/4
f 114/151/2 3/3/5 9/9/8 10/10/3
f 2/2/6 1/1/9 7/7/12 8/8/7
f 113/150/10 112/149/13 5/5/15 6/6/11
f 61/62/16 11/11/4 18/18/17
f 10/10/3 9/9/8 16/16/18 17/17/19
f 8/8/7 7/7/12 14/14/20 15/15/21
f 6/6/11 5/5/15 12/12/22 13/13/23
f 11/11/4 10/10/3 17/17/19 18/18/17
f 9/9/8 8/8/7 15/15/21 16/16/18
f 7/7/12 6/6/11 13/13/23 14/14/20
f 5/5/15 62/78/14 12/12/22
f 15/15/21 14/14/20 21/21/24 22/22/25
f 13/13/23 12/12/22 19/19/26 20/20/27
f 18/18/17 17/17/19 24/24/28 25/25/29
f 16/16/18 15/15/21 22/22/25 23/23/30
f 14/14/20 13/13/23 20/20/27 21/21/24
f 12/12/22 62/79/14 19/19/26
f 61/63/16 18/18/17 25/25/29
f 17/17/19 16/16/18 23/23/30 24/24/28
f 25/25/29 24/24/28 31/31/31 32/32/32
f 23/23/30 22/22/25 29/29/33 30/30/34
f 21/21/24 20/20/27 27/27/35 28/28/36
f 19/19/26 62/80/14 26/26/37
f 61/64/16 25/25/29 32/32/32
f 24/24/28 23/23/30 30/30/34 31/31/31
f 22/22/25 21/21/24 28/28/36 29/29/33
f 20/20/27 19/19/26 26/26/37 27/27/35
f 28/28/36 27/27/35 34/34/38 35/35/39
f 26/26/37 62/81/14 33/33/40
f 61/65/16 32/32/32 39/39/41
f 31/31/31 30/30/34 37/37/42 38/38/43
f 29/29/33 28/28/36 35/35/39 36/36/44
f 27/27/35 26/26/37 33/33/40 34/34/38
f 32/32/32 31/31/31 38/38/43 39/39/41
f 30/30/34 29/29/33 36/36/44 37/37/42
f 61/66/16 39/39/41 46/46/45
f 38/38/43 37/37/42 44/44/46 45/45/47
f 36/36/44 35/35/39 42/42/48 43/43/49
f 34/34/38 33/33/40 40/40/50 41/41/51
f 39/39/41 38/38/43 45/45/47 46/46/45
f 37/37/42 36/36/44 43/43/49 44/44/46
f 35/35/39 34/34/38 41/41/51 42/42/48
f 33/33/40 62/82/14 40/40/50
f 41/41/51 40/40/50 47/47/52 48/48/53
f 46/46/45 45/45/47 52/52/54 53/53/55
f 44/44/46 43/43/49 50/50/56 51/51/57
f 42/42/48 41/41/51 48/48/53 49/49/58
f 40/40/50 62/83/14 47/47/52
f 61/67/16 46/46/45 53/53/55
f 45/45/47 44/44/46 51/51/57 52/52/54
f 43/43/49 42/42/48 49/49/58 50/50/56
f 53/53/55 52/52/54 59/59/59 60/60/60
f 51/51/57 50/50/56 57/57/61 58/58/62
f 49/49/58 48/48/53 55/55/63 56/56/64
f 47/47/52 62/84/14 54/54/65
f 61/68/16 53/53/55 60/60/60
f 52/52/54 51/51/57 58/58/62 59/59/59
f 50/50/56 49/49/58 56/56/64 57/57/61
f 48/48/53 47/47/52 54/54/65 55/55/63
f 54/54/65 62/85/14 63/93/66
f 61/69/16 60/60/60 69/99/67
f 59/59/59 58/58/62 67/97/68 68/98/69
f 57/57/61 56/56/64 65/95/70 66/96/71
f 55/55/63 54/54/65 63/93/66 64/94/72
f 60/60/60 59/59/59 68/98/69 69/99/67
f 58/58/62 57/57/61 66/96/71 67/97/68
f 56/56/64 55/55/63 64/94/72 65/95/70
f 68/98/69 67/97/68 74/104/73 75/105/74
f 66/96/71 65/95/70 72/102/75 73/103/76
f 64/94/72 63/93/66 70/100/77 71/101/78
f 69/99/67 68/98/69 75/105/74 76/106/79
f 67/97/68 66/96/71 73/103/76 74/104/73
f 65/95/70 64/94/72 71/101/78 72/102/75
f 63/93/66 62/86/14 70/100/77
f 61/70/16 69/99/67 76/106/79
f 76/106/79 75/105/74 82/112/80 83/113/81
f 74/104/73 73/103/76 80/110/82 81/111/83
f 72/102/75 71/101/78 78/108/84 79/109/85
f 70/100/77 62/87/14 77/107/86
f 61/71/16 76/106/79 83/113/81
f 75/105/74 74/104/73 81/111/83 82/112/80
f 73/103/76 72/102/75 79/109/85 80/110/82
f 71/101/78 70/100/77 77/107/86 78/108/84
f 81/111/83 80/110/82 87/120/87 88/122/88
f 79/109/85 78/108/84 85/116/89 86/118/90
f 77/107/86 62/88/14 84/114/91
f 61/72/16 83/113/81 90/126/92
f 82/112/80 81/111/83 88/122/88 89/124/93
f 80/110/82 79/109/85 86/118/90 87/120/87
f 78/108/84 77/107/86 84/114/91 85/116/89
f 83/113/81 82/112/80 89/124/93 90/126/92
f 61/73/16 90/127/92 97/134/94
f 89/125/93 88/123/88 95/132/95 96/133/96
f 87/121/87 86/119/90 93/130/97 94/131/98
f 85/117/89 84/115/91 91/128/99 92/129/100
f 90/127/92 89/125/93 96/133/96 97/134/94
f 88/123/88 87/121/87 94/131/98 95/132/95
f 86/119/90 85/117/89 92/129/100 93/130/97
f 84/115/91 62/89/14 91/128/99
f 94/131/98 93/130/97 100/137/101 101/138/102
f 92/129/100 91/128/99 98/135/103 99/136/104
f 97/134/94 96/133/96 103/140/105 104/141/106
f 95/132/95 94/131/98 101/138/102 102/139/107
f 93/130/97 92/129/100 99/136/104 100/137/101
f 91/128/99 62/90/14 98/135/103
f 61/74/16 97/134/94 104/141/106
f 96/133/96 95/132/95 102/139/107 103/140/105
f 104/141/106 103/140/105 110/147/108 111/148/109
f 102/139/107 101/138/102 108/145/110 109/146/111
f 100/137/101 99/136/104 106/143/112 107/144/113
f 98/135/103 62/91/14 105/142/114
f 61/75/16 104/141/106 111/148/109
f 103/140/105 102/139/107 109/146/111 110/147/108
f 101/138/102 100/137/101 107/144/113 108/145/110
f 99/136/104 98/135/103 105/142/114 106/143/112
f 107/144/113 106/143/112 113/150/10 1/1/9
f 105/142/114 62/92/14 112/149/13
f 61/76/16 111/148/109 4/4/1
f 110/147/108 109/146/111 3/3/5 114/151/2
f 108/145/110 107/144/113 1/1/9 2/2/6
f 106/143/112 105/142/114 112/149/13 113/150/10
f 111/148/109 110/147/108 114/151/2 4/4/1
f 109/146/111 108/145/110 2/2/6 3/3/5
